<svg xmlns="http://www.w3.org/2000/svg" xmlns:xlink="http://www.w3.org/1999/xlink" width="500" zoomAndPan="magnify" viewBox="0 0 375 374.999991" height="500" preserveAspectRatio="xMidYMid meet" version="1.0"><defs><clipPath id="3d10462d90"><path d="M 37.5 3.496094 L 322.5 3.496094 L 322.5 371.746094 L 37.5 371.746094 Z M 37.5 3.496094 " clip-rule="nonzero"/></clipPath></defs><rect x="-37.5" width="450" fill="#ffffff" y="-37.499999" height="449.999989" fill-opacity="1"/><rect x="-37.5" width="450" fill="#110505" y="-37.499999" height="449.999989" fill-opacity="1"/><g clip-path="url(#3d10462d90)"><path fill="#000000" d="M 322.5 343.929688 C 322.5 245.664062 258.648438 166.050781 180 166.050781 C 101.351562 166.050781 37.5 245.664062 37.5 343.929688 C 37.5 359.253906 101.351562 371.742188 180 371.742188 C 258.648438 371.742188 322.5 359.253906 322.5 343.929688 Z M 180 3.496094 C 222.898438 3.496094 257.652344 38.304688 257.652344 81.273438 C 257.652344 124.246094 222.898438 159.054688 180 159.054688 C 137.101562 159.054688 102.347656 124.246094 102.347656 81.273438 C 102.347656 38.304688 137.101562 3.496094 180 3.496094 Z M 180 3.496094 " fill-opacity="1" fill-rule="evenodd"/></g></svg>